<?xml version="1.0" encoding="utf-8"?>
<!-- Generator: Adobe Illustrator 19.2.0, SVG Export Plug-In . SVG Version: 6.00 Build 0)  -->
<svg version="1.1" id="Layer_1" xmlns="http://www.w3.org/2000/svg" xmlns:xlink="http://www.w3.org/1999/xlink" x="0px" y="0px"
	 viewBox="0 0 132 37" style="enable-background:new 0 0 132 37;" xml:space="preserve">
<style type="text/css">
	.st0{fill:#00BFDF;}
	.st1{fill:#FFFFFF;}
</style>
<g>
	<polygon class="st0" points="1,1 1,21.9 29.1,21.9 29.1,15 8.1,15 8.1,8 29.1,8 29.1,1 	"/>
	<rect x="1" y="28.9" class="st0" width="7.1" height="7"/>
	<path class="st1" d="M63.4,25.7c0-3.4,3.1-5.1,6.2-5.1c3.2,0,6.2,1.7,6.2,5.1v5.1c0,3.4-3.1,5.1-6.2,5.1c-3.2,0-6.2-1.7-6.2-5.1
		V25.7z M67.2,30.8c0,1.1,1.2,1.6,2.5,1.6c1.2,0,2.4-0.5,2.4-1.6v-5.1c0-1.2-1.3-1.7-2.5-1.7c-1.2,0-2.4,0.6-2.4,1.7V30.8z"/>
	<polygon class="st1" points="102.2,24.5 102.2,36 98.3,36 98.3,24.5 94.4,24.5 92.9,20.9 106.2,20.9 106.2,24.5 	"/>
	<polygon class="st1" points="94.2,36 88.8,20.9 86.6,20.9 84.8,20.9 82.5,20.9 77.2,36 81.2,36 85.7,23.6 87.4,28.5 85.2,28.5 
		83.9,32.5 88.9,32.5 90.1,36 	"/>
	<polygon class="st1" points="68,16 62.5,1 60.4,1 58.5,1 56.2,1 50.9,16 55,16 59.4,3.6 61.1,8.5 58.6,8.5 57.2,12.5 62.6,12.5 
		63.8,16 	"/>
	<polygon class="st1" points="119.4,16 114,1 111.9,1 110,1 107.7,1 102.4,16 106.5,16 110.9,3.6 112.6,8.5 110.1,8.5 108.7,12.5 
		114.1,12.5 115.3,16 	"/>
	<polygon class="st1" points="42.5,25.8 42.5,24.6 49.1,24.6 49.1,20.9 38.6,20.9 38.6,36 42.5,36 42.5,33.3 42.5,31.2 49.1,31.2 
		49.1,27.6 42.5,27.6 42.5,27.3 	"/>
	<path class="st1" d="M50,13c-1.3,2.5-3.5,3.4-5.4,3.4c-2.9,0-5.9-1.7-5.9-5.1V6.1c0-3.4,3-5.1,6-5.1c1.9,0,4.1,0.8,5.3,3.4
		l-3.1,1.3c-1.1-1.9-4.4-1.4-4.4,0.4v5.1c0,1.8,3.4,2.3,4.2,0.2L50,13z"/>
	<path class="st1" d="M69.7,1h6c3.7,0,5.5,2.6,5.5,5.3s-1.9,5.3-5.5,5.3h-2.3V16h-3.8L69.7,1L69.7,1z M75.7,8.3c2.3,0,2.3-3.7,0-3.7
		h-2.3v3.7H75.7z"/>
	<rect x="83.9" y="1" class="st1" width="3.8" height="15"/>
	<polygon class="st1" points="98.5,4.6 98.5,16 94.7,16 94.7,4.6 90.7,4.6 90.7,1 102.6,1 102.6,4.6 	"/>
	<polygon class="st1" points="60.9,32.2 55.8,32.2 55.8,20.9 52,20.9 52,36 55.5,36 55.8,36 62.1,36 	"/>
	<polygon class="st1" points="129.8,12.2 124.8,12.2 124.8,1 120.9,1 120.9,16 124.4,16 124.8,16 131,16 	"/>
</g>
</svg>
